<?xml version="1.0" encoding="UTF-8" standalone="no"?>
<!DOCTYPE svg PUBLIC "-//W3C//DTD SVG 1.1//EN" "http://www.w3.org/Graphics/SVG/1.1/DTD/svg11.dtd">
<svg version="1.1" xmlns="http://www.w3.org/2000/svg" xmlns:xlink="http://www.w3.org/1999/xlink" preserveAspectRatio="xMidYMid meet" viewBox="0 0 640 640" width="640" height="640"><defs><path d="M96.01 164.52L32.02 53.81L160 53.81L287.98 53.81L223.99 164.52L160 275.24L96.01 164.52Z" id="a150vNoqH3"></path><path d="M287.98 177.62C251.74 177.53 212.29 177.43 169.63 177.32C126.98 177.21 81.11 177.09 32.02 176.97" id="cbYHQP6W"></path><path d="M420.89 480L356.9 590.71L484.88 590.71L612.86 590.71L548.88 480L484.88 369.29L420.89 480Z" id="caqAkD2d5"></path><path d="M96.01 480L32.02 369.29L160 369.29L287.98 369.29L223.99 480L160 590.71L96.01 480Z" id="c1c693mypu"></path><path d="M420.18 166.19L356.19 276.9L484.17 276.9L612.14 276.9L548.16 166.19L484.17 55.48L420.18 166.19Z" id="a1aGP1rhah"></path><path d="M611.55 463.1C575.31 463 535.86 462.9 493.21 462.79C450.55 462.69 404.68 462.57 355.6 462.44" id="aCy0BQBnx"></path></defs><g><g><g><g><filter id="shadow16629003" x="23.02" y="44.81" width="274.95" height="240.43" filterUnits="userSpaceOnUse" primitiveUnits="userSpaceOnUse"><feFlood></feFlood><feComposite in2="SourceAlpha" operator="in"></feComposite><feGaussianBlur stdDeviation="1"></feGaussianBlur><feOffset dx="1" dy="1" result="afterOffset"></feOffset><feFlood flood-color="#000000" flood-opacity="0.5"></feFlood><feComposite in2="afterOffset" operator="in"></feComposite><feMorphology operator="dilate" radius="1"></feMorphology><feComposite in2="SourceAlpha" operator="out"></feComposite></filter><path d="M96.01 164.52L32.02 53.81L160 53.81L287.98 53.81L223.99 164.52L160 275.24L96.01 164.52Z" id="b51THXROM" fill="white" fill-opacity="1" filter="url(#shadow16629003)"></path></g><use xlink:href="#a150vNoqH3" opacity="1" fill="#ffffff" fill-opacity="1"></use><g><use xlink:href="#a150vNoqH3" opacity="1" fill-opacity="0" stroke="#000000" stroke-width="8" stroke-opacity="1"></use></g></g><g><g><use xlink:href="#cbYHQP6W" opacity="1" fill-opacity="0" stroke="#000000" stroke-width="8" stroke-opacity="1"></use></g></g><g><g><filter id="shadow6430936" x="347.9" y="360.29" width="274.95" height="240.43" filterUnits="userSpaceOnUse" primitiveUnits="userSpaceOnUse"><feFlood></feFlood><feComposite in2="SourceAlpha" operator="in"></feComposite><feGaussianBlur stdDeviation="1"></feGaussianBlur><feOffset dx="1" dy="1" result="afterOffset"></feOffset><feFlood flood-color="#000000" flood-opacity="0.5"></feFlood><feComposite in2="afterOffset" operator="in"></feComposite><feMorphology operator="dilate" radius="1"></feMorphology><feComposite in2="SourceAlpha" operator="out"></feComposite></filter><path d="M420.89 480L356.9 590.71L484.88 590.71L612.86 590.71L548.88 480L484.88 369.29L420.89 480Z" id="i1K4hG4kWa" fill="white" fill-opacity="1" filter="url(#shadow6430936)"></path></g><use xlink:href="#caqAkD2d5" opacity="1" fill="#ffffff" fill-opacity="1"></use><g><use xlink:href="#caqAkD2d5" opacity="1" fill-opacity="0" stroke="#000000" stroke-width="8" stroke-opacity="1"></use></g></g><g><g><filter id="shadow11130192" x="23.02" y="360.29" width="274.95" height="240.43" filterUnits="userSpaceOnUse" primitiveUnits="userSpaceOnUse"><feFlood></feFlood><feComposite in2="SourceAlpha" operator="in"></feComposite><feGaussianBlur stdDeviation="1"></feGaussianBlur><feOffset dx="1" dy="1" result="afterOffset"></feOffset><feFlood flood-color="#000000" flood-opacity="0.5"></feFlood><feComposite in2="afterOffset" operator="in"></feComposite><feMorphology operator="dilate" radius="1"></feMorphology><feComposite in2="SourceAlpha" operator="out"></feComposite></filter><path d="M96.01 480L32.02 369.29L160 369.29L287.98 369.29L223.99 480L160 590.71L96.01 480Z" id="c116LssqrF" fill="white" fill-opacity="1" filter="url(#shadow11130192)"></path></g><use xlink:href="#c1c693mypu" opacity="1" fill="#ffffff" fill-opacity="1"></use><g><use xlink:href="#c1c693mypu" opacity="1" fill-opacity="0" stroke="#000000" stroke-width="8" stroke-opacity="1"></use></g></g><g><g><filter id="shadow960888" x="347.19" y="46.48" width="274.95" height="240.43" filterUnits="userSpaceOnUse" primitiveUnits="userSpaceOnUse"><feFlood></feFlood><feComposite in2="SourceAlpha" operator="in"></feComposite><feGaussianBlur stdDeviation="1"></feGaussianBlur><feOffset dx="1" dy="1" result="afterOffset"></feOffset><feFlood flood-color="#000000" flood-opacity="0.5"></feFlood><feComposite in2="afterOffset" operator="in"></feComposite><feMorphology operator="dilate" radius="1"></feMorphology><feComposite in2="SourceAlpha" operator="out"></feComposite></filter><path d="M420.18 166.19L356.19 276.9L484.17 276.9L612.14 276.9L548.16 166.19L484.17 55.48L420.18 166.19Z" id="d13AgDH1tJ" fill="white" fill-opacity="1" filter="url(#shadow960888)"></path></g><use xlink:href="#a1aGP1rhah" opacity="1" fill="#ffffff" fill-opacity="1"></use><g><use xlink:href="#a1aGP1rhah" opacity="1" fill-opacity="0" stroke="#000000" stroke-width="8" stroke-opacity="1"></use></g></g><g><g><use xlink:href="#aCy0BQBnx" opacity="1" fill-opacity="0" stroke="#000000" stroke-width="8" stroke-opacity="1"></use></g></g></g></g></svg>